<mxfile host="Electron" modified="2023-08-16T18:21:42.596Z" agent="Mozilla/5.0 (Windows NT 10.0; Win64; x64) AppleWebKit/537.36 (KHTML, like Gecko) draw.io/21.6.1 Chrome/112.0.5615.204 Electron/24.6.1 Safari/537.36" etag="nS23ZCBxMtY07XePbESp" version="21.6.1" type="device">
  <diagram name="Page-1" id="58cdce13-f638-feb5-8d6f-7d28b1aa9fa0">
    <mxGraphModel dx="1100" dy="902" grid="1" gridSize="10" guides="1" tooltips="1" connect="1" arrows="1" fold="1" page="1" pageScale="1" pageWidth="1100" pageHeight="850" background="none" math="0" shadow="0">
      <root>
        <mxCell id="0" />
        <mxCell id="1" parent="0" />
        <mxCell id="DIWdCTv0tTlez8iICaOq-4" style="edgeStyle=orthogonalEdgeStyle;rounded=0;orthogonalLoop=1;jettySize=auto;html=1;exitX=1;exitY=0.25;exitDx=0;exitDy=0;" edge="1" parent="1" source="DIWdCTv0tTlez8iICaOq-1">
          <mxGeometry relative="1" as="geometry">
            <mxPoint x="380" y="50" as="targetPoint" />
            <Array as="points">
              <mxPoint x="220" y="100" />
              <mxPoint x="220" y="50" />
            </Array>
          </mxGeometry>
        </mxCell>
        <mxCell id="DIWdCTv0tTlez8iICaOq-12" style="edgeStyle=orthogonalEdgeStyle;rounded=0;orthogonalLoop=1;jettySize=auto;html=1;exitX=1;exitY=0.25;exitDx=0;exitDy=0;entryX=0;entryY=0.5;entryDx=0;entryDy=0;" edge="1" parent="1" source="DIWdCTv0tTlez8iICaOq-1" target="DIWdCTv0tTlez8iICaOq-7">
          <mxGeometry relative="1" as="geometry">
            <Array as="points">
              <mxPoint x="280" y="100" />
              <mxPoint x="280" y="120" />
            </Array>
          </mxGeometry>
        </mxCell>
        <mxCell id="DIWdCTv0tTlez8iICaOq-13" style="edgeStyle=orthogonalEdgeStyle;rounded=0;orthogonalLoop=1;jettySize=auto;html=1;exitX=1;exitY=0.25;exitDx=0;exitDy=0;entryX=0;entryY=0.5;entryDx=0;entryDy=0;" edge="1" parent="1" source="DIWdCTv0tTlez8iICaOq-1" target="DIWdCTv0tTlez8iICaOq-9">
          <mxGeometry relative="1" as="geometry" />
        </mxCell>
        <mxCell id="DIWdCTv0tTlez8iICaOq-1" value="" style="rounded=0;whiteSpace=wrap;html=1;" vertex="1" parent="1">
          <mxGeometry x="20" y="80" width="160" height="80" as="geometry" />
        </mxCell>
        <mxCell id="DIWdCTv0tTlez8iICaOq-2" value="LevelModel" style="text;html=1;strokeColor=none;fillColor=none;align=center;verticalAlign=middle;whiteSpace=wrap;rounded=0;" vertex="1" parent="1">
          <mxGeometry x="70" y="105" width="60" height="30" as="geometry" />
        </mxCell>
        <mxCell id="DIWdCTv0tTlez8iICaOq-14" style="edgeStyle=orthogonalEdgeStyle;rounded=0;orthogonalLoop=1;jettySize=auto;html=1;exitX=1;exitY=0.5;exitDx=0;exitDy=0;" edge="1" parent="1" source="DIWdCTv0tTlez8iICaOq-5">
          <mxGeometry relative="1" as="geometry">
            <mxPoint x="640" y="50" as="targetPoint" />
          </mxGeometry>
        </mxCell>
        <mxCell id="DIWdCTv0tTlez8iICaOq-5" value="" style="rounded=0;whiteSpace=wrap;html=1;" vertex="1" parent="1">
          <mxGeometry x="380" y="20" width="120" height="60" as="geometry" />
        </mxCell>
        <mxCell id="DIWdCTv0tTlez8iICaOq-6" value="Cell : &lt;br&gt;Walls | Floor" style="text;html=1;strokeColor=none;fillColor=none;align=center;verticalAlign=middle;whiteSpace=wrap;rounded=0;" vertex="1" parent="1">
          <mxGeometry x="395" y="35" width="90" height="30" as="geometry" />
        </mxCell>
        <mxCell id="DIWdCTv0tTlez8iICaOq-7" value="" style="rounded=0;whiteSpace=wrap;html=1;" vertex="1" parent="1">
          <mxGeometry x="380" y="90" width="120" height="60" as="geometry" />
        </mxCell>
        <mxCell id="DIWdCTv0tTlez8iICaOq-9" value="" style="rounded=0;whiteSpace=wrap;html=1;" vertex="1" parent="1">
          <mxGeometry x="380" y="160" width="120" height="60" as="geometry" />
        </mxCell>
        <mxCell id="DIWdCTv0tTlez8iICaOq-15" value="" style="whiteSpace=wrap;html=1;aspect=fixed;" vertex="1" parent="1">
          <mxGeometry x="640" y="10" width="70" height="70" as="geometry" />
        </mxCell>
        <mxCell id="DIWdCTv0tTlez8iICaOq-16" value="Floor : &lt;br&gt;Has:1,&lt;br&gt;None:0" style="text;html=1;strokeColor=none;fillColor=none;align=center;verticalAlign=middle;whiteSpace=wrap;rounded=0;" vertex="1" parent="1">
          <mxGeometry x="645" y="20" width="60" height="50" as="geometry" />
        </mxCell>
        <mxCell id="DIWdCTv0tTlez8iICaOq-17" value="Cell : &lt;br&gt;Walls | Floor" style="text;html=1;strokeColor=none;fillColor=none;align=center;verticalAlign=middle;whiteSpace=wrap;rounded=0;" vertex="1" parent="1">
          <mxGeometry x="395" y="105" width="90" height="30" as="geometry" />
        </mxCell>
        <mxCell id="DIWdCTv0tTlez8iICaOq-18" value="Cell : &lt;br&gt;Walls | Floor" style="text;html=1;strokeColor=none;fillColor=none;align=center;verticalAlign=middle;whiteSpace=wrap;rounded=0;" vertex="1" parent="1">
          <mxGeometry x="395" y="175" width="90" height="30" as="geometry" />
        </mxCell>
        <mxCell id="DIWdCTv0tTlez8iICaOq-19" value="" style="endArrow=classic;startArrow=classic;html=1;rounded=0;exitX=1;exitY=0.5;exitDx=0;exitDy=0;" edge="1" parent="1" source="DIWdCTv0tTlez8iICaOq-15">
          <mxGeometry width="50" height="50" relative="1" as="geometry">
            <mxPoint x="680" y="250" as="sourcePoint" />
            <mxPoint x="800" y="45" as="targetPoint" />
          </mxGeometry>
        </mxCell>
        <mxCell id="DIWdCTv0tTlez8iICaOq-21" value="" style="rounded=0;whiteSpace=wrap;html=1;" vertex="1" parent="1">
          <mxGeometry x="800" y="10" width="160" height="70" as="geometry" />
        </mxCell>
        <mxCell id="DIWdCTv0tTlez8iICaOq-22" value="Walls:&lt;br style=&quot;border-color: var(--border-color);&quot;&gt;[north,east,south,west]&lt;br&gt;Whole: 2,Half: 1,None: 0" style="text;html=1;strokeColor=none;fillColor=none;align=center;verticalAlign=middle;whiteSpace=wrap;rounded=0;" vertex="1" parent="1">
          <mxGeometry x="805" y="20" width="150" height="50" as="geometry" />
        </mxCell>
        <mxCell id="DIWdCTv0tTlez8iICaOq-23" value="" style="endArrow=classic;startArrow=classic;html=1;rounded=0;exitX=1;exitY=0.5;exitDx=0;exitDy=0;" edge="1" parent="1" source="DIWdCTv0tTlez8iICaOq-21">
          <mxGeometry width="50" height="50" relative="1" as="geometry">
            <mxPoint x="710" y="250" as="sourcePoint" />
            <mxPoint x="1010" y="45" as="targetPoint" />
          </mxGeometry>
        </mxCell>
        <mxCell id="DIWdCTv0tTlez8iICaOq-24" value="terminator: |" style="whiteSpace=wrap;html=1;aspect=fixed;" vertex="1" parent="1">
          <mxGeometry x="1010" y="10" width="70" height="70" as="geometry" />
        </mxCell>
      </root>
    </mxGraphModel>
  </diagram>
</mxfile>
